<?xml version="1.0" encoding="utf-8"?>
<!-- Generator: Adobe Illustrator 23.0.2, SVG Export Plug-In . SVG Version: 6.00 Build 0)  -->
<svg version="1.1" id="Capa_1" xmlns="http://www.w3.org/2000/svg" xmlns:xlink="http://www.w3.org/1999/xlink" x="0px" y="0px"
	 viewBox="0 0 300 30" style="enable-background:new 0 0 300 30;" xml:space="preserve">
<style type="text/css">
	.st0{fill:#C4131B;}
	.st1{opacity:0.8;fill:#C4131B;}
	.st2{fill:#8D3B88;}
	.st3{opacity:0.8;fill:#8D3B88;}
	.st4{fill:#1F934C;}
	.st5{opacity:0.8;fill:#1F934C;}
	.st6{fill:#9DBF3B;}
	.st7{fill:#B7156D;}
</style>
<g>
	<path class="st7" d="M16.86,3.71c0.37,0.15,0.57,0.35,0.57,0.62V7.2c0,0.38-0.2,0.59-0.57,0.59h-6.9c-1.39,0-2.1,0.53-2.1,1.57
		v0.35c0,0.86,0.48,1.48,1.45,1.86l4.92,1.89c1.51,0.59,2.61,1.33,3.27,2.22c0.65,0.86,1,2.25,1,4.11v0.77
		c0,4.17-2.96,5.94-8.52,5.94c-2.13,0-4.49-0.24-7.08-0.74c-0.37-0.09-0.54-0.33-0.54-0.74v-2.66c0-0.41,0.2-0.62,0.6-0.62h8.21
		c1.33,0,2.02-0.47,2.02-1.45v-0.3c0-1.06-0.54-1.51-1.99-2.07l-4.92-1.86c-2.53-0.95-3.72-2.6-3.72-6.48V8.95
		c0-4.23,2.56-5.91,8.21-5.91C12.77,3.03,14.82,3.27,16.86,3.71z"/>
	<path class="st7" d="M26.01,3.21c0.28,0,0.43,0.15,0.43,0.47v22.18c0,0.33-0.14,0.5-0.43,0.5h-4.4c-0.28,0-0.43-0.18-0.43-0.5V3.68
		c0-0.33,0.14-0.47,0.43-0.47H26.01z"/>
	<path class="st7" d="M43.88,3.71c0.37,0.15,0.57,0.35,0.57,0.62V7.2c0,0.38-0.2,0.59-0.57,0.59h-6.9c-1.39,0-2.1,0.53-2.1,1.57
		v0.35c0,0.86,0.48,1.48,1.45,1.86l4.92,1.89c1.51,0.59,2.61,1.33,3.27,2.22c0.65,0.86,1,2.25,1,4.11v0.77
		c0,4.17-2.96,5.94-8.52,5.94c-2.13,0-4.49-0.24-7.08-0.74c-0.37-0.09-0.54-0.33-0.54-0.74v-2.66c0-0.41,0.2-0.62,0.6-0.62h8.21
		c1.33,0,2.02-0.47,2.02-1.45v-0.3c0-1.06-0.54-1.51-1.99-2.07l-4.92-1.86c-2.53-0.95-3.72-2.6-3.72-6.48V8.95
		c0-4.23,2.56-5.91,8.21-5.91C39.79,3.03,41.83,3.27,43.88,3.71z"/>
	<path class="st7" d="M63.03,3.21c0.31,0,0.45,0.15,0.45,0.44v3.87c0,0.3-0.14,0.44-0.45,0.44h-5.71v17.92
		c0,0.33-0.14,0.47-0.43,0.47h-4.4c-0.28,0-0.43-0.15-0.43-0.47V7.97h-5.68c-0.28,0-0.43-0.15-0.43-0.44V3.65
		c0-0.3,0.14-0.44,0.43-0.44H63.03z"/>
	<path class="st7" d="M80.96,3.21c0.31,0,0.46,0.15,0.46,0.44v3.87c0,0.3-0.14,0.44-0.46,0.44h-9.89v4.61h9.06
		c0.31,0,0.46,0.15,0.46,0.44v3.67c0,0.3-0.14,0.44-0.46,0.44h-9.06v4.46h9.89c0.31,0,0.46,0.15,0.46,0.44v3.87
		c0,0.3-0.14,0.44-0.46,0.44H66.24c-0.28,0-0.43-0.15-0.43-0.47V3.68c0-0.33,0.14-0.47,0.43-0.47H80.96z"/>
	<path class="st7" d="M107.61,3.18c0.2,0,0.31,0.18,0.34,0.5l2.16,22.18c0.03,0.33-0.11,0.5-0.43,0.5h-4.4
		c-0.26,0-0.4-0.18-0.43-0.5l-1.22-12.89l-4.57,12.21c-0.14,0.33-0.34,0.47-0.63,0.47h-3.04c-0.31,0-0.51-0.15-0.63-0.47
		l-4.57-12.21l-1.25,12.89c-0.03,0.33-0.17,0.5-0.43,0.5h-4.4c-0.31,0-0.46-0.18-0.43-0.5l2.16-22.18c0.03-0.33,0.17-0.47,0.37-0.47
		h4.03c1.05,0,1.48,0.27,1.82,1.18l4.83,13.22l4.83-13.25c0.37-0.95,0.8-1.18,1.82-1.18H107.61z"/>
	<path class="st7" d="M125.11,3.62c0.57,0.38,1.08,1.36,1.51,2.99l5.06,19.28c0.06,0.33-0.06,0.47-0.37,0.47h-4.35
		c-0.2,0-0.31-0.15-0.4-0.47l-1.53-5.97h-7.13l-1.59,5.97c-0.08,0.33-0.2,0.47-0.37,0.47h-4.35c-0.31,0-0.43-0.15-0.37-0.47
		l5.09-19.28c0.43-1.63,0.94-2.6,1.51-2.99c0.57-0.38,1.79-0.59,3.64-0.59C123.32,3.03,124.54,3.24,125.11,3.62z M120.96,8.06
		l-1.9,7.39h4.8l-1.93-7.39c-0.11-0.38-0.17-0.47-0.51-0.47C121.11,7.59,121.08,7.67,120.96,8.06z"/>
	<path class="st7" d="M153.89,5.81c1.45,1.83,2.16,4.85,2.16,9.02c0,4.14-0.71,7.13-2.16,8.96c-1.45,1.8-3.86,2.72-7.25,2.72
		c-2.84,0-5.65-0.12-8.44-0.35c-0.28-0.03-0.43-0.15-0.43-0.35v-22c0-0.27,0.14-0.38,0.43-0.41c2.78-0.24,5.6-0.35,8.44-0.35
		C150.03,3.03,152.44,3.95,153.89,5.81z M143.04,7.79v13.96h3.61c2.98,0,4.09-1.98,4.09-6.92c0-4.97-1.14-7.04-4.18-7.04H143.04z"/>
	<path class="st7" d="M174.21,3.21c0.31,0,0.46,0.15,0.46,0.44v3.87c0,0.3-0.14,0.44-0.46,0.44h-9.89v4.61h9.06
		c0.31,0,0.46,0.15,0.46,0.44v3.67c0,0.3-0.14,0.44-0.46,0.44h-9.06v4.46h9.89c0.31,0,0.46,0.15,0.46,0.44v3.87
		c0,0.3-0.14,0.44-0.46,0.44h-14.72c-0.28,0-0.43-0.15-0.43-0.47V3.68c0-0.33,0.14-0.47,0.43-0.47H174.21z"/>
	<path class="st7" d="M197.62,3.21c0.31,0,0.45,0.15,0.45,0.44v3.87c0,0.3-0.14,0.44-0.45,0.44h-5.71v17.92
		c0,0.33-0.14,0.47-0.43,0.47h-4.4c-0.28,0-0.43-0.15-0.43-0.47V7.97h-5.68c-0.28,0-0.43-0.15-0.43-0.44V3.65
		c0-0.3,0.14-0.44,0.43-0.44H197.62z"/>
	<path class="st7" d="M208.56,3.62c0.57,0.38,1.08,1.36,1.51,2.99l5.06,19.28c0.06,0.33-0.06,0.47-0.37,0.47h-4.35
		c-0.2,0-0.31-0.15-0.4-0.47l-1.53-5.97h-7.13l-1.59,5.97c-0.08,0.33-0.2,0.47-0.37,0.47h-4.35c-0.31,0-0.43-0.15-0.37-0.47
		l5.09-19.28c0.43-1.63,0.94-2.6,1.51-2.99c0.57-0.38,1.79-0.59,3.64-0.59C206.77,3.03,207.99,3.24,208.56,3.62z M204.41,8.06
		l-1.9,7.39h4.8l-1.93-7.39c-0.11-0.38-0.17-0.47-0.51-0.47C204.55,7.59,204.52,7.67,204.41,8.06z"/>
	<path class="st7" d="M232.28,4.75c1.22,1.12,1.82,3.13,1.82,6.06c0,4.38-1.14,6.24-4.21,6.95l4.83,8.01
		c0.23,0.33,0.09,0.59-0.34,0.59h-4.43c-0.6,0-0.82-0.18-1.14-0.65l-4.63-7.6h-1.82v7.78c0,0.38-0.09,0.47-0.43,0.47h-4.4
		c-0.34,0-0.43-0.09-0.43-0.47V3.8c0-0.27,0.14-0.38,0.43-0.41c2.78-0.24,5.57-0.35,8.32-0.35C228.93,3.03,231.06,3.59,232.28,4.75z
		 M222.37,7.79v6.24h2.93c1.36,0,2.27-0.21,2.76-0.59c0.48-0.41,0.71-1.24,0.71-2.45c0-2.45-0.77-3.19-3.47-3.19H222.37z"/>
	<path class="st7" d="M242.08,3.21c0.28,0,0.43,0.15,0.43,0.47v22.18c0,0.33-0.14,0.5-0.43,0.5h-4.4c-0.28,0-0.43-0.18-0.43-0.5
		V3.68c0-0.33,0.14-0.47,0.43-0.47H242.08z"/>
	<path class="st7" d="M260.64,3.21c0.31,0,0.45,0.15,0.45,0.44v3.87c0,0.3-0.14,0.44-0.45,0.44h-9.12v4.64h8.3
		c0.31,0,0.45,0.15,0.45,0.44v3.64c0,0.3-0.14,0.44-0.45,0.44h-8.3v8.75c0,0.33-0.14,0.47-0.43,0.47h-4.4
		c-0.28,0-0.43-0.15-0.43-0.47V3.68c0-0.33,0.14-0.47,0.43-0.47H260.64z"/>
	<path class="st7" d="M273.31,3.62c0.57,0.38,1.08,1.36,1.51,2.99l5.06,19.28c0.06,0.33-0.06,0.47-0.37,0.47h-4.35
		c-0.2,0-0.31-0.15-0.4-0.47l-1.53-5.97h-7.13l-1.59,5.97c-0.08,0.33-0.2,0.47-0.37,0.47h-4.35c-0.31,0-0.43-0.15-0.37-0.47
		l5.09-19.28c0.43-1.63,0.94-2.6,1.51-2.99c0.57-0.38,1.79-0.59,3.64-0.59C271.52,3.03,272.74,3.24,273.31,3.62z M269.16,8.06
		l-1.9,7.39h4.8l-1.93-7.39c-0.11-0.38-0.17-0.47-0.51-0.47C269.3,7.59,269.28,7.67,269.16,8.06z"/>
	<path class="st7" d="M295.56,3.71c0.37,0.15,0.57,0.35,0.57,0.62V7.2c0,0.38-0.2,0.59-0.57,0.59h-6.9c-1.39,0-2.1,0.53-2.1,1.57
		v0.35c0,0.86,0.48,1.48,1.45,1.86l4.92,1.89c1.51,0.59,2.61,1.33,3.27,2.22c0.65,0.86,1,2.25,1,4.11v0.77
		c0,4.17-2.96,5.94-8.52,5.94c-2.13,0-4.49-0.24-7.08-0.74c-0.37-0.09-0.54-0.33-0.54-0.74v-2.66c0-0.41,0.2-0.62,0.6-0.62h8.21
		c1.33,0,2.02-0.47,2.02-1.45v-0.3c0-1.06-0.54-1.51-1.99-2.07l-4.92-1.86c-2.53-0.95-3.72-2.6-3.72-6.48V8.95
		c0-4.23,2.56-5.91,8.21-5.91C291.47,3.03,293.51,3.27,295.56,3.71z"/>
</g>
</svg>
